HIERARCHY
ROOT Hips
{
	OFFSET 0.00000 0.00000 0.00000
	CHANNELS 6 Xposition Yposition Zposition Zrotation Yrotation Xrotation 
	JOINT LHipJoint
	{
		OFFSET 0 0 0
		CHANNELS 3 Zrotation Yrotation Xrotation
		JOINT LeftHip
		{
			OFFSET 1.28366 -1.58472 0.87544
			CHANNELS 3 Zrotation Yrotation Xrotation
			JOINT LeftKnee
			{
				OFFSET 2.18587 -6.00562 0.00000
				CHANNELS 3 Zrotation Yrotation Xrotation
				JOINT LeftAnkle
				{
					OFFSET 2.39085 -6.56880 0.00000
					CHANNELS 3 Zrotation Yrotation Xrotation
					JOINT LeftToe
					{
						OFFSET 0.12003 -0.32979 2.03101
						CHANNELS 3 Zrotation Yrotation Xrotation
						End Site
						{
							OFFSET 0.00000 -0.00000 1.04074
						}
					}
				}
			}
		}
	}
	JOINT RHipJoint
	{
		OFFSET 0 0 0
		CHANNELS 3 Zrotation Yrotation Xrotation
		JOINT RightHip
		{
			OFFSET -1.21795 -1.58472 0.87544
			CHANNELS 3 Zrotation Yrotation Xrotation
			JOINT RightKnee
			{
				OFFSET -2.22714 -6.11902 0.00000
				CHANNELS 3 Zrotation Yrotation Xrotation
				JOINT RightAnkle
				{
					OFFSET -2.40306 -6.60235 0.00000
					CHANNELS 3 Zrotation Yrotation Xrotation
					JOINT RightToe
					{
						OFFSET -0.15519 -0.42640 1.91430
						CHANNELS 3 Zrotation Yrotation Xrotation
						End Site
						{
							OFFSET -0.00000 -0.00000 0.99082
						}
					}
				}
			}
		}
	}
	JOINT lowerback
	{
		OFFSET 0 0 0
		CHANNELS 3 Zrotation Yrotation Xrotation
		JOINT Chest
		{
			OFFSET 0.01180 1.76430 -0.06387
			CHANNELS 3 Zrotation Yrotation Xrotation
			JOINT Chest2
			{
				OFFSET -0.00388 1.74651 0.09536
				CHANNELS 3 Zrotation Yrotation Xrotation
				JOINT lowerneck
				{
					OFFSET 0 0 0
					CHANNELS 3 Zrotation Yrotation Xrotation
					JOINT Neck
					{
						OFFSET 0.04111 1.46174 0.14397
						CHANNELS 3 Zrotation Yrotation Xrotation
						JOINT Head
						{
							OFFSET 0.00502 1.44580 -0.31711
							CHANNELS 3 Zrotation Yrotation Xrotation
							End Site
							{
								OFFSET -0.00395 1.49251 -0.12327
							}
						}
					}
				}
				JOINT LeftCollar
				{
					OFFSET 0 0 0
					CHANNELS 3 Zrotation Yrotation Xrotation
					JOINT LeftShoulder
					{
						OFFSET 2.70917 1.34870 -0.15417
CHANNELS 3 Zrotation Xrotation Yrotation
						JOINT LeftElbow
						{
OFFSET 0 -4.466100 -0.000000
CHANNELS 3 Zrotation Xrotation Yrotation
							JOINT LeftWrist
							{
OFFSET 0 -3.414140 0.000000
CHANNELS 3 Zrotation Xrotation Yrotation
								JOINT lhand
								{
									OFFSET 0 0 0
CHANNELS 3 Zrotation Xrotation Yrotation
									JOINT LFingers
									{
OFFSET 0 -0.328300 0.000000
CHANNELS 3 Zrotation Xrotation Yrotation
										End Site
										{
OFFSET 0 -0.264680 0.000000
										}
									}
								}
								JOINT LThumb
								{
OFFSET 0 0.000000 0.000000
CHANNELS 3 Zrotation Xrotation Yrotation
									End Site
									{
OFFSET 0 -0.268720 0.268720
									}
								}
							}
						}
					}
				}
				JOINT RightCollar
				{
					OFFSET 0 0 0
					CHANNELS 3 Zrotation Yrotation Xrotation
					JOINT RightShoulder
					{
						OFFSET -3.06316 1.13725 -0.10883
CHANNELS 3 Zrotation Xrotation Yrotation
						JOINT RightElbow
						{
OFFSET 0 -4.404310 0.000000
CHANNELS 3 Zrotation Xrotation Yrotation
							JOINT RightWrist
							{
OFFSET 0 -3.046880 0.000000
CHANNELS 3 Zrotation Xrotation Yrotation
								JOINT rhand
								{
									OFFSET 0 0 0
CHANNELS 3 Zrotation Xrotation Yrotation
									JOINT RFingers
									{
OFFSET 0 -0.500490 0.000000
CHANNELS 3 Zrotation Xrotation Yrotation
										End Site
										{
OFFSET 0 -0.403510 0.000000
										}
									}
								}
								JOINT RThumb
								{
OFFSET 0 0.000000 0.000000
CHANNELS 3 Zrotation Xrotation Yrotation
									End Site
									{
OFFSET 0 -0.409670 0.409670
									}
								}
							}
						}
					}
				}
			}
		}
	}
}
MOTION
Frames: 5
Frame Time: 0.008333333333333333
-27.105205 14.967396 6.637310 -178.959369 3.166445 -174.515925 0.000000 0.000000 0.000000 -3.899744 15.931692 -23.670661 4.472553 12.763227 38.489836 -0.012461 7.117594 -9.812001 0.539863 -4.698018 -13.050947 0.000000 0.000000 0.000000 -0.228319 -7.513115 -44.939698 -11.917337 -18.349556 65.719932 -0.240541 -9.007016 10.034673 -0.331521 -3.697084 10.226358 -2.863638 1.699492 5.167037 -0.600916 2.571740 -8.925365 0.474181 1.731305 -12.657227 5.795815 9.527298 -14.246790 -1.075511 11.728590 6.253421 -0.273958 5.828594 4.545443 0.000000 0.000000 0.000000 118.508925 -31.541551 16.152423 87.284592 -59.951090 57.649086 26.765480 -35.820796 -1.169249 0.000000 0.000000 0.000000 -7.125000 0.000000 0.000000 0.151579 31.286265 0.057206 0.000000 0.000000 0.000000 -106.779937 -26.541833 -4.498039 -83.196235 -59.814484 -54.111765 -37.633955 -37.446969 -24.024155 0.000000 0.000000 0.000000 7.125000 0.000000 0.000000 -5.000055 0.703940 -4.958561
-26.126883 15.253025 6.427075 -178.412501 1.503172 -173.462519 0.000000 0.000000 0.000000 -1.951397 15.374685 -26.335371 4.459581 12.747590 38.431626 -0.640361 14.224819 -2.612891 0.053815 1.383084 3.805251 0.000000 0.000000 0.000000 3.494682 -6.652520 -38.871760 -8.948336 -16.774196 55.911172 -0.445943 -5.936238 11.960574 -0.003795 0.166150 -0.456645 -4.021433 1.105990 3.050443 -1.020696 1.870532 -9.451979 0.818146 1.561185 -11.958954 6.897264 10.582122 -15.078204 -0.918723 12.849289 6.816198 -0.216373 6.409481 4.941771 0.000000 0.000000 0.000000 125.741295 -32.800221 26.290659 63.341333 -57.121849 37.137782 18.993626 -49.633214 -8.869301 0.000000 0.000000 0.000000 -7.125000 0.000000 0.000000 -6.887573 39.258585 -0.968908 0.000000 0.000000 0.000000 -111.863939 -24.410331 -12.533171 -66.587456 -57.817312 -39.873472 -33.296471 -46.156026 -19.525919 0.000000 0.000000 0.000000 7.125000 0.000000 0.000000 -3.156946 7.016847 -2.753904
-25.188186 15.315689 6.313890 -178.088604 -0.669177 -173.773489 0.000000 0.000000 0.000000 -1.722490 15.210401 -31.772699 5.814640 14.244611 44.230051 -0.036840 4.974494 2.567172 0.042791 -1.141663 -3.140892 0.000000 0.000000 0.000000 8.106195 -9.235256 -37.544938 -9.094049 -16.867733 56.414579 -0.097644 -4.017619 5.825786 -0.067759 1.679046 -4.619469 -4.553290 1.777774 3.522634 -1.740894 0.964723 -9.501194 0.588707 0.450539 -12.318914 7.456291 11.289126 -15.044721 -0.692801 13.661518 6.904308 -0.141587 6.837712 5.010653 0.000000 0.000000 0.000000 130.073458 -34.945960 36.357590 48.575207 -52.399001 25.042253 12.148662 -56.805277 -14.116784 0.000000 0.000000 0.000000 -7.125000 0.000000 0.000000 -14.013049 43.948933 -0.370149 0.000000 0.000000 0.000000 -114.001282 -22.069595 -17.103201 -55.373261 -54.942334 -30.522054 -29.220078 -52.663235 -14.633010 0.000000 0.000000 0.000000 7.125000 0.000000 0.000000 -1.136115 13.325729 -0.845538
-24.447150 15.217118 6.291154 -177.185788 0.200021 -174.994663 0.000000 0.000000 0.000000 -3.694721 16.606095 -36.700259 8.127183 16.209798 53.016001 -0.151088 -7.449944 5.808202 0.073629 -1.727037 -4.752469 0.000000 0.000000 0.000000 10.959631 -8.746628 -37.539230 -9.978844 -17.397736 59.417426 -0.039005 0.462308 3.940085 -0.056269 1.530752 -4.210602 -3.146527 1.329778 5.747313 -1.670553 1.990033 -9.331854 -0.490628 1.458555 -13.443499 8.068749 12.287409 -15.087209 -1.503147 14.991817 7.323128 -0.305083 7.453179 5.302571 0.000000 0.000000 0.000000 130.842008 -35.599322 43.813234 41.698467 -49.043006 19.712963 10.676083 -58.346933 -15.057924 0.000000 0.000000 0.000000 -7.125000 0.000000 0.000000 -15.607612 44.705985 -0.115963 0.000000 0.000000 0.000000 -114.377845 -20.319970 -21.081100 -50.392885 -53.152405 -26.488303 -25.387622 -57.564351 -9.737486 0.000000 0.000000 0.000000 7.125000 0.000000 0.000000 1.135420 19.224810 0.696819
-23.827654 15.081669 6.273419 -176.069820 3.002275 -174.752085 0.000000 0.000000 0.000000 -6.729984 17.216992 -41.024222 10.209396 17.525288 60.185156 -0.008405 -1.695081 0.337960 0.041502 1.313095 3.610808 0.000000 0.000000 0.000000 14.451447 -6.655201 -37.618230 -10.449556 -17.654981 60.980440 0.031474 3.579609 -0.423580 -0.107271 2.111578 -5.814105 -2.139315 2.370098 6.095218 -1.174961 3.513390 -9.277045 -0.785614 2.082717 -13.600067 9.194741 13.582911 -14.943832 -2.775757 16.691190 7.427931 -0.636569 8.220418 5.584364 0.000000 0.000000 0.000000 129.828619 -35.074642 48.197395 38.195324 -46.962728 17.108510 7.964310 -60.071460 -16.196252 0.000000 0.000000 0.000000 -7.125000 0.000000 0.000000 -18.410793 45.483555 0.227725 0.000000 0.000000 0.000000 -113.103572 -18.479057 -25.383199 -49.234906 -52.682232 -25.564440 -22.102577 -63.220207 -7.168332 0.000000 0.000000 0.000000 7.125000 0.000000 0.000000 3.425908 22.253678 1.875517
